<svg id="visual" viewBox="0 0 900 100" width="900" height="100" xmlns="http://www.w3.org/2000/svg" xmlns:xlink="http://www.w3.org/1999/xlink" version="1.1"><rect x="0" y="0" width="900" height="100" fill="#FFFFFF"></rect><path d="M0 5L16.7 12C33.3 19 66.7 33 100 32.5C133.3 32 166.7 17 200 10.3C233.3 3.7 266.7 5.3 300 6.2C333.3 7 366.7 7 400 9.8C433.3 12.7 466.7 18.3 500 25.3C533.3 32.3 566.7 40.7 600 44C633.3 47.3 666.7 45.7 700 42.8C733.3 40 766.7 36 800 28.8C833.3 21.7 866.7 11.3 883.3 6.2L900 1L900 101L883.3 101C866.7 101 833.3 101 800 101C766.7 101 733.3 101 700 101C666.7 101 633.3 101 600 101C566.7 101 533.3 101 500 101C466.7 101 433.3 101 400 101C366.7 101 333.3 101 300 101C266.7 101 233.3 101 200 101C166.7 101 133.3 101 100 101C66.7 101 33.3 101 16.7 101L0 101Z" fill="#656b76"></path><path d="M0 24L16.7 25.5C33.3 27 66.7 30 100 35.8C133.3 41.7 166.7 50.3 200 54.8C233.3 59.3 266.7 59.7 300 54.7C333.3 49.7 366.7 39.3 400 36.8C433.3 34.3 466.7 39.7 500 39.3C533.3 39 566.7 33 600 29.2C633.3 25.3 666.7 23.7 700 29.8C733.3 36 766.7 50 800 54.3C833.3 58.7 866.7 53.3 883.3 50.7L900 48L900 101L883.3 101C866.7 101 833.3 101 800 101C766.7 101 733.3 101 700 101C666.7 101 633.3 101 600 101C566.7 101 533.3 101 500 101C466.7 101 433.3 101 400 101C366.7 101 333.3 101 300 101C266.7 101 233.3 101 200 101C166.7 101 133.3 101 100 101C66.7 101 33.3 101 16.7 101L0 101Z" fill="#555a63"></path><path d="M0 60L16.7 62.2C33.3 64.3 66.7 68.7 100 69.8C133.3 71 166.7 69 200 67.5C233.3 66 266.7 65 300 68.2C333.3 71.3 366.7 78.7 400 74.8C433.3 71 466.7 56 500 50.3C533.3 44.7 566.7 48.3 600 49C633.3 49.7 666.7 47.3 700 48.7C733.3 50 766.7 55 800 61.7C833.3 68.3 866.7 76.7 883.3 80.8L900 85L900 101L883.3 101C866.7 101 833.3 101 800 101C766.7 101 733.3 101 700 101C666.7 101 633.3 101 600 101C566.7 101 533.3 101 500 101C466.7 101 433.3 101 400 101C366.7 101 333.3 101 300 101C266.7 101 233.3 101 200 101C166.7 101 133.3 101 100 101C66.7 101 33.3 101 16.7 101L0 101Z" fill="#454951"></path><path d="M0 79L16.7 77.5C33.3 76 66.7 73 100 74.5C133.3 76 166.7 82 200 84.5C233.3 87 266.7 86 300 86.2C333.3 86.3 366.7 87.7 400 83.8C433.3 80 466.7 71 500 67.7C533.3 64.3 566.7 66.7 600 72.2C633.3 77.7 666.7 86.3 700 89.3C733.3 92.3 766.7 89.7 800 87.7C833.3 85.7 866.7 84.3 883.3 83.7L900 83L900 101L883.3 101C866.7 101 833.3 101 800 101C766.7 101 733.3 101 700 101C666.7 101 633.3 101 600 101C566.7 101 533.3 101 500 101C466.7 101 433.3 101 400 101C366.7 101 333.3 101 300 101C266.7 101 233.3 101 200 101C166.7 101 133.3 101 100 101C66.7 101 33.3 101 16.7 101L0 101Z" fill="#36393f"></path></svg>